<svg width="309" height="200" viewBox="0 0 309 200" fill="none" xmlns="http://www.w3.org/2000/svg">
<path fill-rule="evenodd" clip-rule="evenodd" d="M308.895 99.7397C308.895 102.665 307.733 105.471 305.664 107.54C303.595 109.609 300.789 110.771 297.863 110.771H37.6804L107.111 180.18C108.137 181.205 108.95 182.423 109.505 183.763C110.06 185.103 110.346 186.539 110.346 187.99C110.346 189.44 110.06 190.876 109.505 192.217C108.95 193.557 108.137 194.774 107.111 195.8C106.085 196.825 104.868 197.639 103.528 198.194C102.188 198.749 100.751 199.035 99.301 199.035C97.8505 199.035 96.4142 198.749 95.0742 198.194C93.7341 197.639 92.5165 196.825 91.4908 195.8L3.24084 107.55C2.21354 106.525 1.39849 105.308 0.842374 103.968C0.286256 102.627 0 101.191 0 99.7397C0 98.2887 0.286256 96.852 0.842374 95.5118C1.39849 94.1716 2.21354 92.9543 3.24084 91.9296L91.4908 3.67959C92.5165 2.65395 93.7341 1.84037 95.0742 1.2853C96.4142 0.730224 97.8505 0.444541 99.301 0.444541C100.751 0.444541 102.188 0.730224 103.528 1.2853C104.868 1.84037 106.085 2.65395 107.111 3.67959C108.137 4.70523 108.95 5.92284 109.505 7.26291C110.06 8.60297 110.346 10.0392 110.346 11.4897C110.346 12.9402 110.06 14.3765 109.505 15.7165C108.95 17.0566 108.137 18.2742 107.111 19.2998L37.6804 88.7085H297.863C300.789 88.7085 303.595 89.8707 305.664 91.9394C307.733 94.0082 308.895 96.814 308.895 99.7397Z" fill="black"/>
</svg>
