<svg width="309" height="200" viewBox="0 0 309 200" fill="none" xmlns="http://www.w3.org/2000/svg">
<path fill-rule="evenodd" clip-rule="evenodd" d="M-0.000210346 99.7397C-0.000210346 96.8141 1.162 94.0082 3.23076 91.9395C5.29952 89.8707 8.10537 88.7085 11.031 88.7085L271.214 88.7085L201.783 19.2999C200.758 18.2742 199.944 17.0566 199.389 15.7165C198.834 14.3765 198.548 12.9402 198.548 11.4897C198.548 10.0393 198.834 8.60299 199.389 7.26292C199.944 5.92286 200.758 4.70525 201.783 3.67961C202.809 2.65397 204.027 1.84039 205.367 1.28531C206.707 0.730243 208.143 0.44455 209.594 0.44455C211.044 0.44455 212.48 0.730243 213.82 1.28531C215.16 1.84039 216.378 2.65397 217.404 3.67961L305.654 91.9296C306.681 92.9543 307.496 94.1716 308.052 95.5118C308.608 96.852 308.895 98.2887 308.895 99.7397C308.895 101.191 308.608 102.627 308.052 103.968C307.496 105.308 306.681 106.525 305.654 107.55L217.404 195.8C216.378 196.825 215.16 197.639 213.82 198.194C212.48 198.749 211.044 199.035 209.594 199.035C208.143 199.035 206.707 198.749 205.367 198.194C204.027 197.639 202.809 196.825 201.783 195.8C200.758 194.774 199.944 193.557 199.389 192.217C198.834 190.876 198.548 189.44 198.548 187.99C198.548 186.539 198.834 185.103 199.389 183.763C199.944 182.423 200.758 181.205 201.783 180.18L271.214 110.771L11.031 110.771C8.10537 110.771 5.29952 109.609 3.23076 107.54C1.162 105.471 -0.000210346 102.665 -0.000210346 99.7397Z" fill="black"/>
</svg>
